#!OML:ASF G:\JayActor3\Patient Classification 1\Patient 1\Session 5\male.ASF
:FULLY-SPECIFIED
:DEGREES
453
root -9.68789 17.5432 -5.8201 -114.87 85.1127 -114.685
lowerback 0.922213 -1.75325 3.21326
upperback 0.283343 -2.29784 0.704469
thorax -0.323782 -1.1467 -1.04779
lowerneck -6.45593 -0.368314 0.747201
upperneck 8.43692 -0.808636 3.01189
head 3.91716 -0.217342 0.82706
rclavicle 2.68173e-014 -1.17283e-014
rhumerus -34.6888 -14.1712 -80.5329
rradius 22.0809
rwrist 6.62023
rhand -19.444 -9.09881
rfingers 7.12502
rthumb 6.87659 -38.9671
lclavicle 2.68173e-014 -1.17283e-014
lhumerus -34.8155 19.4658 77.2593
lradius 17.8445
lwrist 11.2503
lhand -18.0205 12.0595
lfingers 7.12502
lthumb 8.25055 41.8784
rfemur -15.2803 0.246035 28.3112
rtibia 32.4141
rfoot -4.87482 -8.12407
rtoes -3.76105
lfemur 11.7049 6.95441 -11.67
ltibia 37.522
lfoot 30.5385 2.32073
ltoes -8.41022
454
root -9.56152 17.5487 -5.80531 -113.987 84.8927 -113.67
lowerback 0.96007 -1.70575 3.48603
upperback 0.352088 -2.23077 0.730859
thorax -0.281007 -1.11132 -1.17407
lowerneck -6.47788 -0.388199 0.752008
upperneck 8.45909 -0.838672 3.03571
head 3.93001 -0.230235 0.832761
rclavicle -2.53606e-014 4.17448e-015
rhumerus -34.4839 -13.9655 -80.6897
rradius 22.1487
rwrist 6.51042
rhand -19.3789 -9.27677
rfingers 7.12502
rthumb 6.93942 -39.143
lclavicle -2.53606e-014 4.17448e-015
lhumerus -34.774 19.6911 77.0706
lradius 17.7767
lwrist 11.1822
lhand -18.0565 11.9731
lfingers 7.12502
lthumb 8.21579 41.7934
rfemur -14.5528 0.0719564 28.6249
rtibia 32.1888
rfoot -4.89873 -7.92649
rtoes -4.1233
lfemur 10.4397 6.89761 -11.399
ltibia 39.5975
lfoot 29.3944 2.1985
ltoes -8.23718
455
root -9.43867 17.5533 -5.79165 -113.117 84.6644 -112.68
lowerback 0.998253 -1.65983 3.77002
upperback 0.427855 -2.16565 0.762269
thorax -0.230916 -1.07638 -1.30157
lowerneck -6.49979 -0.40164 0.75328
upperneck 8.45515 -0.859149 3.058
head 3.93347 -0.2391 0.838897
rclavicle 1.86764e-014 -4.37326e-015
rhumerus -34.2432 -13.7684 -80.8415
rradius 22.1912
rwrist 6.44049
rhand -19.3271 -9.35824
rfingers 7.12502
rthumb 6.98936 -39.2228
lclavicle 1.86764e-014 -4.37326e-015
lhumerus -34.7119 19.904 76.9054
lradius 17.7295
lwrist 11.1705
lhand -18.0762 11.8611
lfingers 7.12502
lthumb 8.19677 41.6821
rfemur -13.8622 -0.0933667 28.9383
rtibia 31.98
rfoot -4.90393 -7.7292
rtoes -4.46946
lfemur 9.17134 6.79902 -11.144
ltibia 41.5272
lfoot 27.8535 1.92013
ltoes -8.47252
456
root -9.31927 17.557 -5.779 -112.341 84.4296 -111.789
lowerback 1.04388 -1.6166 4.05866
upperback 0.509278 -2.10366 0.797923
thorax -0.178746 -1.04252 -1.42714
lowerneck -6.51793 -0.412091 0.753871
upperneck 8.42443 -0.874519 3.07482
head 3.92655 -0.246272 0.84339
rclavicle -7.2867e-015 5.1684e-015
rhumerus -33.9826 -13.5498 -81.0024
rradius 22.235
rwrist 6.38787
rhand -19.3182 -9.39149
rfingers 7.12502
rthumb 6.99803 -39.2558
lclavicle -7.2867e-015 5.1684e-015
lhumerus -34.6327 20.0856 76.7744
lradius 17.7054
lwrist 11.2195
lhand -18.0897 11.7435
lfingers 7.12502
lthumb 8.18375 41.565
rfemur -13.2042 -0.259163 29.2498
rtibia 31.7875
rfoot -4.9026 -7.54479
rtoes -4.74168
lfemur 7.89926 6.6496 -10.9102
ltibia 43.3095
lfoot 26.0871 1.51267
ltoes -8.80401
457
root -9.20318 17.56 -5.7673 -111.698 84.1845 -111.037
lowerback 1.09773 -1.57723 4.3541
upperback 0.594726 -2.04616 0.838092
thorax -0.126776 -1.01042 -1.5516
lowerneck -6.52634 -0.421 0.758774
upperneck 8.36385 -0.886669 3.08244
head 3.90692 -0.252784 0.843971
rclavicle 1.02933e-014 5.1684e-015
rhumerus -33.7087 -13.3193 -81.1661
rradius 22.2917
rwrist 6.32732
rhand -19.3328 -9.38972
rfingers 7.12502
rthumb 6.98386 -39.2545
lclavicle 1.02933e-014 5.1684e-015
lhumerus -34.5377 20.2243 76.6814
lradius 17.7032
lwrist 11.3258
lhand -18.0895 11.6273
lfingers 7.12502
lthumb 8.18394 41.4489
rfemur -12.577 -0.442316 29.5639
rtibia 31.6124
rfoot -4.89262 -7.37465
rtoes -4.99861
lfemur 6.62356 6.44848 -10.6917
ltibia 44.9417
lfoot 24.2007 1.00579
ltoes -9.12556
458
root -9.09003 17.5621 -5.75664 -111.192 83.9318 -110.425
lowerback 1.15766 -1.5406 4.65569
upperback 0.683806 -1.99171 0.880939
thorax -0.0742032 -0.979365 -1.67656
lowerneck -6.5222 -0.431962 0.764138
upperneck 8.2775 -0.900306 3.08408
head 3.87564 -0.260872 0.84218
rclavicle 3.06812e-014 -1.86858e-014
rhumerus -33.4323 -13.0738 -81.3325
rradius 22.3684
rwrist 6.25273
rhand -19.3933 -9.3413
rfingers 7.12502
rthumb 6.92549 -39.208
lclavicle 3.06812e-014 -1.86858e-014
lhumerus -34.4249 20.3162 76.6269
lradius 17.7156
lwrist 11.467
lhand -18.0776 11.5332
lfingers 7.12502
lthumb 8.19542 41.3543
rfemur -11.9806 -0.65842 29.8765
rtibia 31.4576
rfoot -4.87399 -7.21261
rtoes -5.22961
lfemur 5.34785 6.19587 -10.4931
ltibia 46.4186
lfoot 22.2547 0.442844
ltoes -9.34504
